<svg xmlns="http://www.w3.org/2000/svg" width="45.096" height="42.734" viewBox="0 0 45.096 42.734">
  <g id="image-upload" transform="translate(-2.227 -2.251)">
    <path id="Path_32963" data-name="Path 32963" d="M47.271,16.274V35a7.8,7.8,0,0,1-8.652,8.652H10.932A7.8,7.8,0,0,1,2.28,35V11.932A7.8,7.8,0,0,1,10.932,3.28h20.3a.692.692,0,0,1,.658.842,10.353,10.353,0,0,0,14.429,11.5.692.692,0,0,1,.948.651Z" transform="translate(0 1.276)" fill="#a4a4b8"/>
    <path id="Path_32964" data-name="Path 32964" d="M41.616,20.365,31.345,10.093a2.321,2.321,0,0,0-3.276,0l-11.4,11.4a1.154,1.154,0,0,1-1.615,0l-2.169-2.169a2.321,2.321,0,0,0-3.276,0L3.953,24.98a.692.692,0,0,0-.2.489v1.444C3.75,30.559,5.3,32.1,8.941,32.1H36.628c3.645,0,5.191-1.546,5.191-5.191V20.854a.692.692,0,0,0-.2-.489Z" transform="translate(1.991 9.367)" fill="#f2f2f8"/>
    <path id="Path_32965" data-name="Path 32965" d="M9.64,13.518A2.884,2.884,0,0,1,9.619,7.75H9.64a2.884,2.884,0,1,1,0,5.768Z" transform="translate(5.906 7.188)" fill="#f2f2f8"/>
    <path id="Path_32966" data-name="Path 32966" d="M27.1,6.217,23.64,2.756a1.733,1.733,0,0,0-2.446,0L17.733,6.217a1.73,1.73,0,0,0,2.446,2.446l.508-.505v5.051a1.73,1.73,0,0,0,3.461,0V8.157l.508.505A1.73,1.73,0,0,0,27.1,6.217Z" transform="translate(19.663 0)" fill="#a4a4b8"/>
  </g>
</svg>
