<svg xmlns="http://www.w3.org/2000/svg" width="20.091" height="20.092" viewBox="0 0 20.091 20.092">
  <g id="Ruler" transform="translate(-1.48 -1.48)">
    <path id="Path_31187" data-name="Path 31187" d="M21.369,6.789,16.262,1.683a.691.691,0,0,0-.978,0l-13.6,13.6a.691.691,0,0,0,0,.978l5.105,5.107a.692.692,0,0,0,.978,0l13.6-13.6a.693.693,0,0,0,0-.979ZM18.743,8.437,16.679,6.375a.692.692,0,1,0-.978.979l2.065,2.062-1.306,1.306L15.249,9.51a.692.692,0,1,0-.978.978L15.481,11.7l-1.3,1.3L12.112,10.94a.692.692,0,0,0-.978.978L13.2,13.983l-1.3,1.3L10.68,14.075a.692.692,0,0,0-.978.979l1.213,1.211-1.306,1.3L7.546,15.508a.692.692,0,0,0-.978.978L8.63,18.549,7.277,19.9,3.15,15.774,15.773,3.151,19.9,7.279Z"/>
  </g>
</svg>
