<svg xmlns="http://www.w3.org/2000/svg" width="20" height="20" viewBox="0 0 20 20">
  <g id="share_3_" data-name="share (3)" transform="translate(-218.731 -92.903)">
    <path id="Path_31186" data-name="Path 31186" d="M226.731,92.9h-4a4,4,0,0,0-4,4v12a4,4,0,0,0,4,4h12a4,4,0,0,0,4-4v-4a1,1,0,1,0-2,0v4a2,2,0,0,1-2,2h-12a2,2,0,0,1-2-2v-12a2,2,0,0,1,2-2h4a1,1,0,0,0,0-2Zm8.586,2h-3.586a1,1,0,0,1,0-2h6a1,1,0,0,1,1,1v6a1,1,0,0,1-2,0V96.317l-7.293,7.293a1,1,0,1,1-1.414-1.414Z" fill="#292d32" fill-rule="evenodd"/>
  </g>
</svg>
