<svg xmlns="http://www.w3.org/2000/svg" width="20.515" height="18.316" viewBox="0 0 20.515 18.316">
  <path id="Path_32920" data-name="Path 32920" d="M10.256,18.316a1.467,1.467,0,0,1-.966-.363c-.7-.615-1.394-1.2-2.015-1.734l-.246-.21a42.494,42.494,0,0,1-4.971-4.668A7.7,7.7,0,0,1,0,6.294,6.508,6.508,0,0,1,1.657,1.835,5.674,5.674,0,0,1,5.828,0,5.373,5.373,0,0,1,9.179,1.145a6.686,6.686,0,0,1,1.079,1.061,6.664,6.664,0,0,1,1.081-1.062A5.327,5.327,0,0,1,14.632,0a5.693,5.693,0,0,1,4.222,1.831,6.507,6.507,0,0,1,1.66,4.459,7.711,7.711,0,0,1-2.055,5.05,42.622,42.622,0,0,1-4.976,4.671l-.11.094c-.655.558-1.389,1.184-2.149,1.847a1.461,1.461,0,0,1-.963.363ZM5.829,1.768a3.911,3.911,0,0,0-2.871,1.26A4.75,4.75,0,0,0,1.767,6.279a5.925,5.925,0,0,0,1.624,3.906,41.3,41.3,0,0,0,4.77,4.472c.639.544,1.348,1.15,2.089,1.8.522-.453,1.029-.887,1.5-1.291l.585-.5a41.32,41.32,0,0,0,4.773-4.474A5.934,5.934,0,0,0,18.74,6.273a4.75,4.75,0,0,0-1.2-3.253,3.909,3.909,0,0,0-2.863-1.252,3.622,3.622,0,0,0-2.259.768,5.347,5.347,0,0,0-1.273,1.476,1.036,1.036,0,0,1-1.422.363,1.029,1.029,0,0,1-.36-.361A5.355,5.355,0,0,0,8.091,2.535,3.576,3.576,0,0,0,6.02,1.768H5.861l-.032-.3Z" transform="translate(0)" fill="#a4a4b8"/>
</svg>
